<?xml version="1.0" encoding="UTF-8" standalone="no"?>
<!DOCTYPE svg PUBLIC "-//W3C//DTD SVG 1.1//EN" "http://www.w3.org/Graphics/SVG/1.1/DTD/svg11.dtd">
<svg width="100%" height="100%" viewBox="0 0 1080 1080" version="1.1" xmlns="http://www.w3.org/2000/svg" xmlns:xlink="http://www.w3.org/1999/xlink" xml:space="preserve" xmlns:serif="http://www.serif.com/" style="fill-rule:evenodd;clip-rule:evenodd;stroke-linejoin:round;stroke-miterlimit:2;">
    <g transform="matrix(1.185242,0,0,1.185242,-100.030897,-50.499756)">
        <g transform="matrix(1.775018,-0.542151,0.549621,1.799476,-644.402027,-70.835779)">
            <path d="M667.466,348.598L667.466,659.553C667.466,672.065 657.167,682.224 644.482,682.224L377.875,682.224C365.19,682.224 354.892,672.065 354.892,659.553L354.892,348.598C354.892,336.085 365.19,325.927 377.875,325.927L644.482,325.927C657.167,325.927 667.466,336.085 667.466,348.598Z" style="fill:rgb(215,215,215);"/>
        </g>
        <g transform="matrix(1.836504,-0.211239,0.214594,1.865665,-509.2756,-271.979967)">
            <path d="M667.466,348.551L667.466,659.6C667.466,672.086 657.167,682.224 644.482,682.224L377.875,682.224C365.19,682.224 354.892,672.086 354.892,659.6L354.892,348.551C354.892,336.064 365.19,325.927 377.875,325.927L644.482,325.927C657.167,325.927 667.466,336.064 667.466,348.551Z" style="fill:rgb(233,230,223);"/>
        </g>
        <g transform="matrix(1.862912,0,0,1.862912,-402.981534,-372.276527)">
            <path d="M667.466,348.91L667.466,659.241C667.466,671.925 657.167,682.224 644.482,682.224L377.875,682.224C365.19,682.224 354.892,671.925 354.892,659.241L354.892,348.91C354.892,336.225 365.19,325.927 377.875,325.927L644.482,325.927C657.167,325.927 667.466,336.225 667.466,348.91Z" style="fill:rgb(246,242,233);"/>
        </g>
        <g transform="matrix(1.862912,0,0,1.862912,-402.981534,-372.276527)">
            <g transform="matrix(1.204579,0,0,1.335872,-131.525285,-126.853048)">
                <path d="M645.42,369.101C645.42,370.573 644.095,371.768 642.462,371.768L427.374,371.768C425.741,371.768 424.416,370.573 424.416,369.101C424.416,367.629 425.741,366.433 427.374,366.433L642.462,366.433C644.095,366.433 645.42,367.629 645.42,369.101Z" style="fill:rgb(176,195,201);"/>
            </g>
            <g transform="matrix(1.204579,0,0,1.335872,-131.525285,-96.853048)">
                <path d="M645.42,369.101C645.42,370.573 644.095,371.768 642.462,371.768L427.374,371.768C425.741,371.768 424.416,370.573 424.416,369.101C424.416,367.629 425.741,366.433 427.374,366.433L642.462,366.433C644.095,366.433 645.42,367.629 645.42,369.101Z" style="fill:rgb(176,195,201);"/>
            </g>
            <g transform="matrix(1.204579,0,0,1.335872,-131.525285,-66.853048)">
                <path d="M645.42,369.101C645.42,370.573 644.095,371.768 642.462,371.768L427.374,371.768C425.741,371.768 424.416,370.573 424.416,369.101C424.416,367.629 425.741,366.433 427.374,366.433L642.462,366.433C644.095,366.433 645.42,367.629 645.42,369.101Z" style="fill:rgb(176,195,201);"/>
            </g>
            <g transform="matrix(1.204579,0,0,1.335872,-131.525285,-36.853048)">
                <path d="M645.42,369.101C645.42,370.573 644.095,371.768 642.462,371.768L427.374,371.768C425.741,371.768 424.416,370.573 424.416,369.101C424.416,367.629 425.741,366.433 427.374,366.433L642.462,366.433C644.095,366.433 645.42,367.629 645.42,369.101Z" style="fill:rgb(176,195,201);"/>
            </g>
            <g transform="matrix(1.204579,0,0,1.335872,-131.525285,-6.853048)">
                <path d="M645.42,369.101C645.42,370.573 644.095,371.768 642.462,371.768L427.374,371.768C425.741,371.768 424.416,370.573 424.416,369.101C424.416,367.629 425.741,366.433 427.374,366.433L642.462,366.433C644.095,366.433 645.42,367.629 645.42,369.101Z" style="fill:rgb(176,195,201);"/>
            </g>
            <g transform="matrix(1.204579,0,0,1.335872,-131.525285,23.146952)">
                <path d="M645.42,369.101C645.42,370.573 644.095,371.768 642.462,371.768L427.374,371.768C425.741,371.768 424.416,370.573 424.416,369.101C424.416,367.629 425.741,366.433 427.374,366.433L642.462,366.433C644.095,366.433 645.42,367.629 645.42,369.101Z" style="fill:rgb(176,195,201);"/>
            </g>
            <g transform="matrix(1.204579,0,0,1.335872,-131.525285,53.146952)">
                <path d="M645.42,369.101C645.42,370.573 644.095,371.768 642.462,371.768L427.374,371.768C425.741,371.768 424.416,370.573 424.416,369.101C424.416,367.629 425.741,366.433 427.374,366.433L642.462,366.433C644.095,366.433 645.42,367.629 645.42,369.101Z" style="fill:rgb(176,195,201);"/>
            </g>
            <g transform="matrix(1.204579,0,0,1.335872,-131.525285,83.146952)">
                <path d="M645.42,369.101C645.42,370.573 644.095,371.768 642.462,371.768L427.374,371.768C425.741,371.768 424.416,370.573 424.416,369.101C424.416,367.629 425.741,366.433 427.374,366.433L642.462,366.433C644.095,366.433 645.42,367.629 645.42,369.101Z" style="fill:rgb(176,195,201);"/>
            </g>
            <g transform="matrix(1.204579,0,0,1.335872,-131.525285,113.146952)">
                <path d="M645.42,369.101C645.42,370.573 644.095,371.768 642.462,371.768L427.374,371.768C425.741,371.768 424.416,370.573 424.416,369.101C424.416,367.629 425.741,366.433 427.374,366.433L642.462,366.433C644.095,366.433 645.42,367.629 645.42,369.101Z" style="fill:rgb(176,195,201);"/>
            </g>
            <g transform="matrix(1.204579,0,0,1.335872,-131.525285,143.146952)">
                <path d="M645.42,369.101C645.42,370.573 644.095,371.768 642.462,371.768L427.374,371.768C425.741,371.768 424.416,370.573 424.416,369.101C424.416,367.629 425.741,366.433 427.374,366.433L642.462,366.433C644.095,366.433 645.42,367.629 645.42,369.101Z" style="fill:rgb(176,195,201);"/>
            </g>
        </g>
    </g>
    <g transform="matrix(2.208002,0,0,2.208002,-700.461559,-572.289657)">
        <path d="M605.988,292.594C601.43,285.117 599.823,277.449 603.949,271.905L609.64,264.145C616.505,256.431 631.777,257.878 645.862,267.934C659.946,277.99 666.586,292.871 660.679,301.144C659.904,302.23 656.352,307.255 655.214,308.849C651.396,314.197 643.223,316.327 634.323,314.119L622.458,335.045C625.673,340.797 627.434,347.095 627.203,353.691C626.567,371.845 612.877,377.885 606.328,377.578C591.939,376.903 572.477,368.932 562.279,355.347C557.776,349.348 554.511,342.424 552.849,334.927C552.832,334.528 552.943,334.108 552.823,333.724C549.858,324.206 561.426,309.319 580.858,310.099C583.55,310.208 586.182,310.565 588.731,311.168L588.984,311.054L605.988,292.594Z" style="fill:rgb(243,129,119);"/>
        <path d="M660.679,301.144C653.107,312.979 634.129,305.065 622.9,296.965C611.526,288.761 603.721,272.421 609.54,264.444C616.232,255.271 634.656,259.181 645.862,267.934C660.358,279.258 666.814,291.555 660.679,301.144Z" style="fill:rgb(248,160,148);"/>
        <path d="M605.988,292.594L604.516,294.191C605.99,298.774 618.936,314.329 633.624,315.352L634.323,314.119C622.008,309.7 610.692,300.654 605.988,292.594Z" style="fill:rgb(247,160,148);"/>
        <path d="M586.189,310.653C586.189,310.653 576.347,315.818 578.97,325.049C580.644,330.942 581.526,333.335 590.63,341.619C600.061,350.2 611.241,348.881 611.241,348.881C611.241,348.881 622.108,347.697 623.336,336.701L622.458,335.045C617.489,347.038 605.206,351.525 589.198,336.761C589.198,336.761 580.998,329.167 581.527,321.827C581.937,316.131 585.304,314.544 588.731,311.168L586.189,310.653Z" style="fill:rgb(247,160,148);"/>
        <path d="M578.656,369.194L567.027,384.368C567.027,384.368 558.636,387.964 560.734,379.173L570.47,363.696" style="fill:rgb(184,198,198);"/>
    </g>
</svg>
